<?xml version="1.0" encoding="UTF-8"?>
<svg id="Capa_2" data-name="Capa 2" xmlns="http://www.w3.org/2000/svg" viewBox="0 0 278.73 80.53">
  <defs>
    <style>
      .cls-1 {
        fill: none;
      }

      .cls-1, .cls-2 {
        stroke: #b1b0b0;
        stroke-miterlimit: 10;
        stroke-width: 1.5px;
      }

      .cls-3 {
        fill: #3c5785;
        stroke-width: 0px;
      }

      .cls-2 {
        fill: #b1b0b0;
      }
    </style>
  </defs>
  <g id="logo">
    <g>
      <g id="tecnologia">
        <g>
          <line class="cls-2" x1="106.59" y1="65.9" x2="106.66" y2="76.17"/>
          <line class="cls-2" x1="100.97" y1="65.64" x2="112.01" y2="65.64"/>
        </g>
        <path class="cls-1" d="m133.5,67.17h-6.48c-.12,0-.4.01-.69.21-.43.31-.54.82-.56.92l.12,4.48c0,.12,0,.35,0,.35,0,0-.19,1.13.44,1.7.19.18.4.25.56.28h6.6"/>
        <path class="cls-1" d="m136.5,75.91v-8.74h7.01c.07,0,.69.05,1.03.6.21.33.2.67.19.8-.02,2.51-.04,5.02-.06,7.54"/>
        <path class="cls-1" d="m114.86,71.61c2.62.02,5.23.04,7.85.06-.05-1.81-.06-3.02,0-3.51,0-.07.03-.26-.06-.45-.15-.29-.5-.4-.74-.45-1.86-.02-3.73-.04-5.59-.06-.11-.03-.42-.09-.76.06-.43.19-.64.65-.64.65,0,0-.04,4.24-.06,6.35,0,.07.04.55.44.84.22.16.57.19.57.19h7.35"/>
        <path class="cls-1" d="m148.57,68.38c.07-.18.21-.48.51-.77.26-.25.53-.38.7-.45h4.72c.17.07.49.23.77.57.24.3.34.6.38.77,0,2.49.02,4.28.06,4.91,0,.08.02.3-.06.57-.14.43-.45.72-.7.89-2.7.19-4.7.16-5.3,0-.51-.14-.77-.45-.77-.45s-.17-.21-.26-.51c-.15-.55-.18-2.68-.06-5.55Z"/>
        <path class="cls-1" d="m159.01,64.11l.09,10.08c0,.06-.06.48.26.83.26.28.6.32.68.33h1.96"/>
        <path class="cls-1" d="m164.4,68.55c.07-.18.21-.48.51-.77.26-.25.53-.38.7-.45h4.72c.17.07.49.23.77.57.24.3.34.6.38.77,0,2.49.02,4.28.06,4.91,0,.08.02.3-.06.57-.14.43-.45.72-.7.89-2.7.19-4.7.16-5.3,0-.51-.14-.77-.45-.77-.45s-.17-.21-.26-.51c-.15-.55-.18-2.68-.06-5.55Z"/>
        <path class="cls-1" d="m182.67,74.74v-6.13c-.08-.18-.21-.43-.43-.68-.37-.42-.79-.6-1.02-.68h-5.02c-.15-.02-.37-.03-.6.09-.41.21-.62.76-.51,1.36-.03,1.73-.06,3.46-.09,5.19-.01.57.27,1.04.68,1.19.24.09.47.04.6,0h6.3v2.89c-.01.08-.07.48-.43.77-.28.22-.6.25-.77.26-.71.03-3.37.01-6.98-.09"/>
        <path class="cls-1" d="m188.8,67.59h6.87c.18.03.93.18,1.31.85.08.15.13.29.16.43.03.88.05,1.76.08,2.64l-7.61-.09v2.55c0,.13.04.61.41,1.02.42.47.95.51,1.06.51,2.05.03,4.09.06,6.14.09v-4.09"/>
        <g>
          <line class="cls-1" x1="186.16" y1="66.57" x2="186.16" y2="76.1"/>
          <line class="cls-1" x1="185.23" y1="65.21" x2="187.18" y2="65.21"/>
        </g>
      </g>
      <g id="aplicada">
        <path class="cls-1" d="m247.48,67.54h6.87c.18.03.93.18,1.31.85.08.15.13.29.16.43.03.88.05,1.76.08,2.64l-7.61-.09v2.55c0,.13.04.61.41,1.02.42.47.95.51,1.06.51,2.05.03,4.09.06,6.14.09v-4.09"/>
        <path class="cls-1" d="m204.76,67.46h6.87c.18.03.93.18,1.31.85.08.15.13.29.16.43.03.88.05,1.76.08,2.64l-7.61-.09v2.55c0,.13.04.61.41,1.02.42.47.95.51,1.06.51,2.05.03,4.09.06,6.14.09v-4.09"/>
        <path class="cls-1" d="m269.52,67.37h6.87c.18.03.93.18,1.31.85.08.15.13.29.16.43.03.88.05,1.76.08,2.64l-7.61-.09v2.55c0,.13.04.61.41,1.02.42.47.95.51,1.06.51,2.05.03,4.09.06,6.14.09v-4.09"/>
        <g>
          <line class="cls-1" x1="233.22" y1="66.78" x2="233.22" y2="76.31"/>
          <line class="cls-1" x1="232.28" y1="65.42" x2="234.24" y2="65.42"/>
        </g>
        <path class="cls-1" d="m227.45,64.26l.09,10.08c0,.06-.06.48.26.83.26.28.6.32.68.33h1.96"/>
        <path class="cls-1" d="m245.32,67.32h-6.48c-.12,0-.4.01-.69.21-.43.31-.54.82-.56.92l.12,4.48c0,.12,0,.35,0,.35,0,0-.19,1.13.44,1.7.19.18.4.25.56.28h6.6"/>
        <path class="cls-1" d="m266.59,66.91c-1.87.03-3.74.06-5.62.09-.15-.02-.63-.05-1.11.26-.66.43-.76,1.17-.77,1.28v5.11c.04.17.17.63.6,1.02.44.41.93.49,1.11.51l6.04.09v-11.66"/>
        <path class="cls-1" d="m216.63,80.53c0-1.65-.02-3.29-.03-4.94.04-2.78.08-5.56.11-8.34,1.87.03,3.74.06,5.62.09.19.02.71.09,1.19.51.48.42.64.93.68,1.11v5.45c-.05.18-.18.54-.51.85-.41.38-.91.47-1.28.51-1.71.2-4.99.01-5.19,0"/>
      </g>
      <g id="tremia">
        <path class="cls-3" d="m130.72,52.44h12.09s-.86-24.95.34-33.15c.1-.7.61-1.77,1.53-2.83,1.55-1.79,3.5-2.42,4.26-2.5,1.27-.14,5.11,0,5.11,0,.64.11,2.52.53,4.09,2.17,1.37,1.43,1.75,3.02,1.87,3.66v32.48l12.6.17.17-32.82c.19-.66.89-2.79,3.06-4.33,1.82-1.29,4.53-1.68,5.28-1.69.63,0,3.26.31,5.62,3.02,1.07,1.22,1.51,2.52,1.7,3.33.17,10.99.34,21.99.51,32.98h12.26l.17-33.65c-.26-1.93-1.1-6.19-4.43-10.33-3.9-4.86-8.86-6.61-10.72-7.16-1.49-.29-3.4-.54-5.62-.5-2.15.04-4.9.21-6.26.5-1.06.23-2.21.53-4.3,1.67-2.02,1.1-3.27,2.49-3.91,3.33-1.52-1.31-4.31-3.35-8.34-4.5-2.71-.77-5.1-.89-6.81-.83-1.56-.05-4.01.07-6.81,1-2.98.99-5.08,2.48-6.3,3.5-1.18.75-3.29,2.3-4.94,5-1.86,3.04-2.16,5.93-2.21,7.33"/>
        <path class="cls-3" d="m34.89,52.94l15.15-42.81c.83-1.47,2.59-4.12,5.79-6.24,2.45-1.62,4.79-2.3,6.3-2.6h10.89l-.17,12.13-10.89.17-13.62,39.17-13.45.17Z"/>
        <path class="cls-3" d="m0,1.47c.06,4.15.11,8.29.17,12.44h11.06c.06,13.01.11,26.02.17,39.04,4.09-.06,8.6-.03,12.68-.09.11-13.07-.2-26.23-.09-39.3h11.06V1.3L0,1.47Z"/>
        <path class="cls-3" d="m112,20.44c.1-.05,2.05-1.11,2.21-3.32.12-1.67-.83-3.28-2.38-4.02-5.28.06-10.55.12-15.83.17-1.24.65-3.42,2.01-5.28,4.54-.85,1.16-2.99,4.41-3.06,9.09-.02,1.29.82,5.84,3.91,9.79,1.93,2.46,4.6,4.02,4.6,4.02,9.13-.12,18.95.12,28.09,0v12.06l-28.09.17c-2.38-.62-8.94-2.67-14.3-9.09-5.89-7.07-6.53-14.88-6.64-17.3.11-2.3.79-11.04,7.66-18.17,4.81-5,10.26-6.72,12.77-7.34h17.53c1.26.28,7.32,1.92,9.87,5.94,3.82,6.02,3.22,8.65,3.23,9.96.08,1.56-.29,5.67-2.55,9.44-3.63,6.04-10.56,6.3-11.57,6.47h-17.7c.06-4.14.11-8.27.17-12.41h17.36Z"/>
        <g>
          <polygon class="cls-3" points="206.47 52.94 218.72 52.94 218.89 19.07 206.64 19.07 206.47 52.94"/>
          <path class="cls-3" d="m212.43,0c4.44-.16,8.17,3.44,8.17,7.83,0,4.35-3.66,7.92-8,7.83-4.21-.09-7.66-3.6-7.66-7.83,0-4.14,3.31-7.63,7.49-7.83Z"/>
        </g>
        <path class="cls-3" d="m265.19,52.77h13.28l-13.45-38.98c-.99-1.75-2.56-4.05-4.94-6.3-3.34-3.15-6.8-4.78-9.02-5.62-7.49-.06-14.98-.11-22.47-.17l-.17,12.43h21.28c.54.19,2.86,1.08,4.09,3.57.78,1.58.74,3.05.68,3.74h-17.7c-1.48.33-4.99,1.31-8,4.43-4.32,4.47-4.43,10.01-4.43,11.23,0,1.3.19,6.34,4.09,10.72,3.35,3.77,7.45,4.81,8.85,5.11,6.47-.06,12.94-.11,19.4-.17l.17-12.09-18.55-.34c-.14-.09-1.7-1.21-1.7-3.23s1.57-3.14,1.7-3.23c6.75-.11,13.5-.23,20.26-.34l6.64,19.23Z"/>
      </g>
    </g>
  </g>
</svg>