<?xml version="1.0" encoding="utf-8"?>
<!-- Generator: Adobe Illustrator 27.8.1, SVG Export Plug-In . SVG Version: 6.00 Build 0)  -->
<svg version="1.1" id="Capa_1" xmlns="http://www.w3.org/2000/svg" xmlns:xlink="http://www.w3.org/1999/xlink" x="0px" y="0px"
	 viewBox="0 0 500 500" style="enable-background:new 0 0 500 500;" xml:space="preserve">
<style type="text/css">
	.st0{stroke:#FFFFFF;stroke-miterlimit:10;}
	.st1{stroke:#FFFFFF;stroke-width:0.7911;stroke-miterlimit:10;}
	.st2{stroke:#FFFFFF;stroke-width:0.7975;stroke-miterlimit:10;}
	.st3{fill:#1D1D1B;stroke:#1D1D1B;stroke-width:20;stroke-miterlimit:10;}
	.st4{fill:#1D1D1B;stroke:#FFFFFF;stroke-width:15;stroke-miterlimit:10;}
	.st5{fill:#1D1D1B;stroke:#1D1D1B;stroke-width:1.2525;stroke-miterlimit:10;}
	.st6{fill:#FFFFFF;}
	.st7{stroke:#FFFFFF;stroke-width:1.145;stroke-miterlimit:10;}
	.st8{stroke:#FFFFFF;stroke-width:0.2584;stroke-miterlimit:10;}
	.st9{fill:#FFFFFF;stroke:#1D1D1B;stroke-width:12;stroke-miterlimit:10;}
	.st10{fill:#FFFFFF;stroke:#1D1D1B;stroke-width:12.3689;stroke-miterlimit:10;}
</style>
<polygon points="466.4,490.3 342,490.3 342,427.8 467,427.8 "/>
<g>
	<rect x="342" y="356.5" width="125" height="62.5"/>
</g>
<g>
	<rect x="357.6" y="314.4" class="st0" width="93.8" height="31.2"/>
</g>
<rect x="326.4" y="283.2" class="st1" width="156.2" height="19.6"/>
<path class="st2" d="M373.2,272.1h62.5l-14.5-49l-5.2,2.2c-7.4,3.1-15.8,3-23.1-0.4l-3.8-1.8"/>
<g>
	<circle class="st3" cx="405.5" cy="176.9" r="32.5"/>
	<circle class="st4" cx="405.5" cy="176.9" r="20"/>
</g>
<path class="st5" d="M392.6,122.9c-3.7-0.1-13.8,0.3-22.3,7.6c-8.8,7.5-10.6,17.7-11,21.3c-12.2-14.1-24.3-28.1-36.5-42.2
	c3.4,0.2,13.8,0.4,22.5-6.9c9.2-7.7,10.5-18.7,10.8-22C368.3,94.7,380.4,108.8,392.6,122.9z"/>
<g>
	<circle class="st3" cx="307.3" cy="59.4" r="32.5"/>
	<circle class="st4" cx="307.3" cy="59.4" r="20"/>
</g>
<rect x="13.2" y="344.3" class="st1" width="156.2" height="19.6"/>
<g>
	<rect x="28.8" y="382.4" width="125" height="108.6"/>
	<g>
		<rect x="50.1" y="404.9" class="st6" width="84.8" height="11.2"/>
		<rect x="50.1" y="456.7" class="st6" width="84.8" height="11.2"/>
		<rect x="50.1" y="431.2" class="st6" width="84.8" height="11.2"/>
	</g>
</g>
<path class="st1" d="M113.7,335.9H68.8c-7.2,0-13-5.8-13-13v-26.6c0-7.2,5.8-13,13-13h44.9c7.2,0,13,5.8,13,13v26.6
	C126.8,330.1,120.9,335.9,113.7,335.9z"/>
<path class="st7" d="M275.3,110.4L156.1,229.6c-4.3,4.3-11.2,4.3-15.5,0l-8.3-8.3c-4.3-4.3-4.3-11.2,0-15.5L251.5,86.6
	c4.3-4.3,11.2-4.3,15.5,0l8.3,8.3C279.5,99.2,279.5,106.1,275.3,110.4z"/>
<path class="st8" d="M135.5,230.2l-23.4,24.2c-1.7,1.7-4.9,2.5-7.2,1.9l0,0c-2.3-0.7-2.8-2.6-1.2-4.3l23.4-24.2
	c1.7-1.7,4.9-2.5,7.2-1.9l0,0C136.7,226.6,137.2,228.5,135.5,230.2z"/>
<path class="st9" d="M354.7,39.4c2.7,0.8,17.4,5.4,25.1,21c8.6,17.3,1.5,34.2,0.5,36.6"/>
<path class="st10" d="M455.8,185.6c1.3,2.7,8,17.5,1.8,34.8c-6.8,19.1-23.9,25.8-26.3,26.6"/>
</svg>
