<?xml version="1.0" encoding="utf-8"?>
<!-- Generator: Adobe Illustrator 27.8.1, SVG Export Plug-In . SVG Version: 6.00 Build 0)  -->
<svg version="1.1" id="Capa_1" xmlns="http://www.w3.org/2000/svg" xmlns:xlink="http://www.w3.org/1999/xlink" x="0px" y="0px"
	 viewBox="0 0 500 500" style="enable-background:new 0 0 500 500;" xml:space="preserve">
<style type="text/css">
	.st0{fill:#1D1D1B;stroke:#FFFFFF;stroke-width:1.4965;stroke-miterlimit:10;}
	.st1{fill:#1D1D1B;}
	.st2{fill:#FFFFFF;stroke:#FFFFFF;stroke-width:1.0368;stroke-miterlimit:10;}
	.st3{fill:#FFFFFF;stroke:#FFFFFF;stroke-width:0.7406;stroke-miterlimit:10;}
	.st4{fill:none;stroke:#000000;stroke-width:8.2942;stroke-miterlimit:10;}
	.st5{stroke:#FFFFFF;stroke-width:6.2207;stroke-miterlimit:10;}
	.st6{fill:#FFFFFF;}
</style>
<g>
	<path class="st0" d="M349.2,183.4H150.8c-27.3,0-49.5-23-49.5-51.5l0,0c0-28.4,22.2-51.5,49.5-51.5c16.5,0,33,0,49.5,0
		c49.6,0,99.2,0,148.8,0c3.3,0,20.9,0.3,35,15.1c8.9,9.3,14.5,22.2,14.5,36.4l0,0C398.7,160.3,376.6,183.4,349.2,183.4z"/>
	<ellipse class="st1" cx="216.8" cy="89.4" rx="59.5" ry="55.5"/>
	<ellipse class="st1" cx="305.4" cy="76.3" rx="59.5" ry="55.5"/>
</g>
<g>
	<g>
		<path class="st1" d="M143.4,487.9H85.5c-10.4,0-18.8-8.6-18.8-19.1V311.5c0-10.6,8.4-19.1,18.8-19.1h57.9
			c10.4,0,18.8,8.6,18.8,19.1v157.2C162.3,479.2,153.9,487.9,143.4,487.9z"/>
		<g>
			<rect x="82.1" y="468.5" class="st2" width="64.7" height="7.3"/>
			<rect x="82.1" y="424.1" class="st2" width="64.7" height="7.3"/>
			<rect x="82.1" y="446.3" class="st2" width="64.7" height="7.3"/>
			<rect x="82.1" y="401.8" class="st2" width="64.7" height="7.3"/>
			<rect x="82.1" y="379.6" class="st2" width="64.7" height="7.3"/>
		</g>
		<g>
			<g>
				<rect x="82.2" y="326.9" class="st3" width="15.4" height="15.7"/>
				<rect x="82.2" y="351.5" class="st3" width="15.4" height="15.7"/>
				<rect x="82.2" y="302.4" class="st3" width="15.4" height="15.7"/>
			</g>
			<g>
				<rect x="131.2" y="326.9" class="st3" width="15.4" height="15.7"/>
				<rect x="131.2" y="351.5" class="st3" width="15.4" height="15.7"/>
				<rect x="131.2" y="302.4" class="st3" width="15.4" height="15.7"/>
			</g>
		</g>
	</g>
	<g>
		<path class="st1" d="M279,487.9h-58.5c-10.3,0-18.6-8.5-18.6-18.9V311.1c0-10.5,8.3-18.9,18.6-18.9H279c10.3,0,18.6,8.5,18.6,18.9
			V469C297.6,479.4,289.3,487.9,279,487.9z"/>
		<g>
			<rect x="217.5" y="468.5" class="st2" width="64.7" height="7.3"/>
			<rect x="217.5" y="424.1" class="st2" width="64.7" height="7.3"/>
			<rect x="217.5" y="446.3" class="st2" width="64.7" height="7.3"/>
			<rect x="217.5" y="401.8" class="st2" width="64.7" height="7.3"/>
			<rect x="217.5" y="379.6" class="st2" width="64.7" height="7.3"/>
		</g>
		<g>
			<g>
				<rect x="217.6" y="326.9" class="st3" width="15.4" height="15.7"/>
				<rect x="217.6" y="351.5" class="st3" width="15.4" height="15.7"/>
				<rect x="217.6" y="302.4" class="st3" width="15.4" height="15.7"/>
			</g>
			<g>
				<rect x="266.6" y="326.9" class="st3" width="15.4" height="15.7"/>
				<rect x="266.6" y="351.5" class="st3" width="15.4" height="15.7"/>
				<rect x="266.6" y="302.4" class="st3" width="15.4" height="15.7"/>
			</g>
		</g>
	</g>
	<g>
		<path class="st1" d="M414.8,487.9h-58.7c-10.2,0-18.5-8.4-18.5-18.8V311c0-10.4,8.2-18.8,18.5-18.8h58.7
			c10.2,0,18.5,8.4,18.5,18.8v158C433.3,479.4,425.1,487.9,414.8,487.9z"/>
		<g>
			<rect x="353.1" y="468.5" class="st2" width="64.7" height="7.3"/>
			<rect x="353.1" y="424.1" class="st2" width="64.7" height="7.3"/>
			<rect x="353.1" y="446.3" class="st2" width="64.7" height="7.3"/>
			<rect x="353.1" y="401.8" class="st2" width="64.7" height="7.3"/>
			<rect x="353.1" y="379.6" class="st2" width="64.7" height="7.3"/>
		</g>
		<g>
			<g>
				<rect x="353.2" y="326.9" class="st3" width="15.4" height="15.7"/>
				<rect x="353.2" y="351.5" class="st3" width="15.4" height="15.7"/>
				<rect x="353.2" y="302.4" class="st3" width="15.4" height="15.7"/>
			</g>
			<g>
				<rect x="402.4" y="326.9" class="st3" width="15.4" height="15.7"/>
				<rect x="402.4" y="351.5" class="st3" width="15.4" height="15.7"/>
				<rect x="402.4" y="302.4" class="st3" width="15.4" height="15.7"/>
			</g>
		</g>
	</g>
</g>
<g>
	<path class="st4" d="M114.6,245.1L114.6,245.1c0-10.7,13.2-19.2,29.4-19.2l213.1,0.5c15.6,0,28.4,8.4,28.4,18.7l0,0"/>
	<g>
		<g>
			<ellipse cx="114.5" cy="259.6" rx="15.4" ry="15.7"/>
			<ellipse cx="249.8" cy="259.6" rx="15.4" ry="15.7"/>
			<ellipse cx="385.5" cy="259.6" rx="15.4" ry="15.7"/>
		</g>
		<path class="st5" d="M250.1,163.9l-16.5-0.1c-3.4,0-5.4-3.7-3.8-6.6L238,143l8.3-14.2c1.7-2.9,6-2.9,7.6,0l8.2,14.3l8.2,14.3
			c1.6,2.9-0.4,6.6-3.8,6.6L250.1,163.9z"/>
		<rect x="235.1" y="165" class="st6" width="30.4" height="18.7"/>
		<rect x="246.1" y="160.8" width="8.2" height="83.7"/>
	</g>
</g>
</svg>
