<?xml version="1.0" encoding="utf-8"?>
<!-- Generator: Adobe Illustrator 27.7.0, SVG Export Plug-In . SVG Version: 6.00 Build 0)  -->
<svg version="1.1" id="Capa_1" xmlns="http://www.w3.org/2000/svg" xmlns:xlink="http://www.w3.org/1999/xlink" x="0px" y="0px"
	 viewBox="0 0 500 500" style="enable-background:new 0 0 500 500;" xml:space="preserve">
<style type="text/css">
	.st0{fill:#FFD316;}
	.st1{fill:#F6A320;}
	.st2{fill:none;stroke:#3967B0;stroke-width:8;stroke-miterlimit:10;}
	.st3{fill:none;stroke:#3967B0;stroke-width:10;stroke-miterlimit:10;}
	.st4{fill:none;stroke:#4792CF;stroke-width:8;stroke-miterlimit:10;}
	.st5{fill:none;stroke:#4792CF;stroke-width:10;stroke-miterlimit:10;}
	.st6{fill:none;stroke:#5CB4E6;stroke-width:8.2185;stroke-miterlimit:10;}
	.st7{fill:none;stroke:#5CB4E6;stroke-width:10.2731;stroke-miterlimit:10;}
	.st8{fill:#FFFFFF;stroke:#FFFFFF;stroke-width:1.0189;stroke-miterlimit:10.0002;}
</style>
<g>
	<polygon class="st0" points="333.1,239.6 236.1,329.6 198.6,286 183.1,267.9 	"/>
	<polygon class="st1" points="183.1,267.9 198.6,286 333.1,239.6 	"/>
</g>
<g>
	<polyline class="st0" points="263.5,358.9 210,298.1 113.5,388.1 	"/>
	<polygon class="st1" points="263.5,358.9 247.3,341.1 113.5,388.1 	"/>
</g>
<g>
	<line class="st2" x1="199.6" y1="179.2" x2="199.6" y2="263.9"/>
	<line class="st2" x1="163.9" y1="167.6" x2="202.1" y2="182.2"/>
	<circle class="st3" cx="147.7" cy="160.7" r="14"/>
</g>
<g>
	<line class="st2" x1="316" y1="201.7" x2="316.5" y2="241"/>
	<line class="st2" x1="346.4" y1="181.8" x2="314.4" y2="205.1"/>
	<circle class="st3" cx="361.3" cy="170.4" r="14"/>
</g>
<g>
	<line class="st4" x1="230.5" y1="177.8" x2="230.2" y2="258.3"/>
	<line class="st4" x1="200.1" y1="124" x2="231" y2="179.9"/>
	<circle class="st5" cx="189.9" cy="110.6" r="14"/>
</g>
<g>
	<line class="st4" x1="284.6" y1="177.8" x2="284.4" y2="247.6"/>
	<line class="st4" x1="317" y1="127.1" x2="284.1" y2="179.9"/>
	<circle class="st5" cx="326.8" cy="111.7" r="14"/>
</g>
<g>
	<line class="st6" x1="258.3" y1="102.1" x2="257.4" y2="252.2"/>
	<ellipse class="st7" cx="258.2" cy="82.8" rx="14" ry="14.8"/>
</g>
<rect x="181.4" y="246.9" transform="matrix(0.9799 -0.1996 0.1996 0.9799 -44.8177 56.4372)" class="st8" width="152.2" height="7.2"/>
</svg>
